<?xml version="1.0" encoding="UTF-8" standalone="no"?>
<!DOCTYPE svg PUBLIC "-//W3C//DTD SVG 1.1//EN"
 "http://www.w3.org/Graphics/SVG/1.1/DTD/svg11.dtd">
<!-- Generated by graphviz version 2.38.0 (20140413.2041)
 -->
<!-- Title: G Pages: 1 -->
<svg width="79pt" height="127pt"
 viewBox="0.00 0.00 79.00 127.00" xmlns="http://www.w3.org/2000/svg" xmlns:xlink="http://www.w3.org/1999/xlink">
<g id="graph0" class="graph" transform="scale(1 1) rotate(0) translate(4 123)">
<title>G</title>
<polygon fill="white" stroke="none" points="-4,4 -4,-123 75,-123 75,4 -4,4"/>
<!-- Jkphl/Php -->
<g id="node1" class="node"><title>Jkphl/Php</title>
<path fill="#eeeeee" stroke="black" stroke-width="2" d="M59,-119C59,-119 12,-119 12,-119 6,-119 0,-113 0,-107 0,-107 0,-95 0,-95 0,-89 6,-83 12,-83 12,-83 59,-83 59,-83 65,-83 71,-89 71,-95 71,-95 71,-107 71,-107 71,-113 65,-119 59,-119"/>
<text text-anchor="middle" x="35.5" y="-97.3" font-family="Times,serif" font-size="14.00" fill="#314b5f">Jkphl/Php</text>
</g>
<!-- php -->
<g id="node2" class="node"><title>php</title>
<path fill="#eeeeee" stroke="black" d="M50.5,-36C50.5,-36 20.5,-36 20.5,-36 14.5,-36 8.5,-30 8.5,-24 8.5,-24 8.5,-12 8.5,-12 8.5,-6 14.5,-0 20.5,-0 20.5,-0 50.5,-0 50.5,-0 56.5,-0 62.5,-6 62.5,-12 62.5,-12 62.5,-24 62.5,-24 62.5,-30 56.5,-36 50.5,-36"/>
<text text-anchor="middle" x="35.5" y="-14.3" font-family="Times,serif" font-size="14.00" fill="#314b5f">php</text>
</g>
<!-- Jkphl/Php&#45;&gt;php -->
<g id="edge1" class="edge"><title>Jkphl/Php&#45;&gt;php</title>
<path fill="none" stroke="#1a2833" d="M35.5,-82.822C35.5,-72.1903 35.5,-58.306 35.5,-46.2035"/>
<polygon fill="#1a2833" stroke="#1a2833" points="39.0001,-46.1532 35.5,-36.1533 32.0001,-46.1533 39.0001,-46.1532"/>
<text text-anchor="middle" x="48" y="-57" font-family="Times,serif" font-size="10.00" fill="#767676">&gt;=5.6</text>
</g>
</g>
</svg>
